<svg width="9000" height="9000" viewBox="0 0 9000 9000" fill="none" xmlns="http://www.w3.org/2000/svg">
<path d="M4500 0L8397.11 2250V6750L4500 9000L602.886 6750V2250L4500 0Z" fill="#1F269D"/>
<path d="M4499.5 701L7789.1 2600.25V6398.75L4499.5 8298L1209.9 6398.75V2600.25L4499.5 701Z" fill="white"/>
<path d="M6697.66 5826.55C6671.85 5741.03 6614.13 5670.55 6535.06 5628.13C6457.76 5586.64 6369.39 5576.95 6285.57 5600.71L5423.42 5768.29C5360.68 5662.21 5239.18 5590.13 5099.83 5590.13H4670.05L4662.85 5589.7L4653.89 5591.35C4643.66 5592.44 4514.15 5604.79 4294.42 5524.83C4154.17 5473.81 4066.18 5440.23 4001.89 5415.76C3946.06 5394.44 3909.18 5380.41 3873.86 5368.62C3804.98 5345.66 3501.42 5340.26 3287.21 5339.42C3274.08 5228.32 3179.56 5141.88 3065.04 5141.88H2287V5354.22H2687.81V6557.39H2287V6769.72H3065.04C3160.4 6769.72 3241.83 6709.69 3274.08 6625.48C3427.8 6632.43 3513.05 6676.24 3520.85 6680.41L3528 6684.96L4258.55 6948.6C4461.27 7020.6 4612.96 7038.88 4714.76 7038.88C4808.1 7038.88 4859.51 7023.51 4869.87 7020.05L4877.03 7017.65L5472.18 6719.89L6481.91 6241.94C6653.64 6185.28 6750.22 6000.84 6697.68 5826.55L6697.66 5826.55ZM3076.78 6545.61C3076.78 6551.89 3071.27 6557.41 3064.99 6557.41H2899.96V5354.23H3064.99C3071.27 5354.23 3076.78 5359.75 3076.78 5366.03V6545.61ZM6412.15 6041.28L6404.57 6043.56L5380.19 6528.46L4798.77 6819.32C4767.7 6825.81 4612.81 6849.15 4329.84 6748.67L3618.62 6492.02C3583.51 6473.4 3471.69 6422.64 3288.88 6413.62V5551.79C3516.44 5553.01 3761.94 5559.97 3808.41 5570.62C3839.02 5580.9 3873.92 5594.22 3926.26 5614.14C3991.18 5638.92 4080.06 5672.79 4221.82 5724.4C4473.71 5816.07 4633.66 5807.27 4676.64 5802.46H5099.68C5184.51 5802.46 5256.2 5861.86 5256.2 5932.22C5256.2 6002.57 5184.51 6061.97 5099.68 6061.97H4671.08L4409.29 6056.16C4374.13 6052.07 4253.34 6045.08 4165.1 6124.62C4122.87 6162.7 4073.91 6234.24 4080.48 6358.86L4292.37 6347.69C4291.4 6329.24 4291.99 6296.3 4306.9 6282.56C4325.38 6265.54 4368.83 6264.82 4384.74 6267.01L4390.68 6268.11L4667.55 6274.26L5099.72 6274.3C5286.86 6274.3 5441.8 6144.25 5465.25 5976.45L6330.65 5808.23L6341.05 5805.66C6372.25 5796.27 6405.51 5799.68 6434.6 5815.27C6463.69 5830.9 6484.91 5856.68 6494.34 5887.94C6514 5952.9 6477.12 6021.69 6412.16 6041.29L6412.15 6041.28Z" fill="#1F269D"/>
<path d="M3817.91 1963C3788.61 1963 3764.92 1986.74 3764.92 2015.99V2863.8H3446.99C3417.69 2863.8 3394 2887.54 3394 2916.79V4347.48C3394 4376.73 3417.69 4400.47 3446.99 4400.47H3764.92V5089.32C3764.92 5118.57 3788.61 5142.31 3817.91 5142.31H6202.39C6231.69 5142.31 6255.38 5118.57 6255.38 5089.32C6255.38 5089.32 6255.02 2759.71 6254.97 2758.97C6255.23 2744.82 6250.24 2730.8 6239.86 2720.36L5498.02 1978.52C5484.98 1965.49 5469.65 1963 5439.34 1963H3817.91ZM3870.9 2068.98H5407.56V2757.83C5407.56 2787.08 5431.25 2810.82 5460.55 2810.82H6149.4V5036.33H3870.9V4400.47H4877.68C4906.98 4400.47 4930.67 4376.73 4930.67 4347.48V2916.79C4930.67 2887.54 4906.98 2863.8 4877.68 2863.8H3870.9V2068.98ZM5513.54 2143.91L6074.47 2704.84H5513.54V2143.91ZM3499.98 2969.78H4824.69V4294.49H3499.98V2969.78Z" fill="#1F269D"/>
<path d="M5550.51 3119L5978.58 3119C5990.13 3119 6000.94 3124.7 6007.46 3134.23C6015.62 3146.15 6015.62 3161.85 6007.46 3173.77C6000.94 3183.3 5990.13 3189 5978.58 3189H5550.51H5117.42C5105.87 3189 5095.06 3183.3 5088.54 3173.77C5080.38 3161.85 5080.38 3146.15 5088.54 3134.23C5095.06 3124.7 5105.87 3119 5117.42 3119L5550.51 3119Z" fill="#1F269D"/>
<path d="M5550.51 3429L5978.58 3429C5990.13 3429 6000.94 3434.7 6007.46 3444.23C6015.62 3456.15 6015.62 3471.85 6007.46 3483.77C6000.94 3493.3 5990.13 3499 5978.58 3499H5550.51H5117.42C5105.87 3499 5095.06 3493.3 5088.54 3483.77C5080.38 3471.85 5080.38 3456.15 5088.54 3444.23C5095.06 3434.7 5105.87 3429 5117.42 3429L5550.51 3429Z" fill="#1F269D"/>
<path d="M5550.51 3739L5978.58 3739C5990.13 3739 6000.94 3744.7 6007.46 3754.23C6015.62 3766.15 6015.62 3781.85 6007.46 3793.77C6000.94 3803.3 5990.13 3809 5978.58 3809H5550.51H5117.42C5105.87 3809 5095.06 3803.3 5088.54 3793.77C5080.38 3781.85 5080.38 3766.15 5088.54 3754.23C5095.06 3744.7 5105.87 3739 5117.42 3739L5550.51 3739Z" fill="#1F269D"/>
<path d="M5550.51 4049L5978.58 4049C5990.13 4049 6000.94 4054.7 6007.46 4064.23C6015.62 4076.15 6015.62 4091.85 6007.46 4103.77C6000.94 4113.3 5990.13 4119 5978.58 4119H5550.51H5117.42C5105.87 4119 5095.06 4113.3 5088.54 4103.77C5080.38 4091.85 5080.38 4076.15 5088.54 4064.23C5095.06 4054.7 5105.87 4049 5117.42 4049L5550.51 4049Z" fill="#1F269D"/>
<circle cx="4113.76" cy="3618.9" r="410.661" fill="#1F269D"/>
<circle cx="4117.21" cy="3622.35" r="317.486" fill="white"/>
<rect x="4282.87" y="3380.79" width="379.603" height="476.229" fill="white"/>
</svg>
