<?xml version="1.0" encoding="UTF-8"?>
<svg version="1.1" viewBox="0 0 7794.2 9000" xml:space="preserve" xmlns="http://www.w3.org/2000/svg"><path d="m7471.6 6563.7-3574.5 2063.7-3574.5-2063.7v-4127.5l3574.5-2063.7 3574.5 2063.7z" fill="#fff" stroke="#1f269d" stroke-width="645.26"/><path d="m3238.9 1963c-29.3 0-52.99 23.74-52.99 52.99v847.81h-317.93c-29.3 0-52.99 23.74-52.99 52.99v1430.7c0 29.25 23.69 52.99 52.99 52.99h317.93v688.85c0 29.25 23.69 52.99 52.99 52.99h2384.5c29.3 0 52.99-23.74 52.99-52.99 0 0-0.36-2329.6-0.41-2330.4 0.26-14.15-4.73-28.17-15.11-38.61l-741.84-741.84c-13.04-13.03-28.37-15.52-58.68-15.52zm52.99 105.98h1536.7v688.85c0 29.25 23.69 52.99 52.99 52.99h688.85v2225.5h-2278.5v-635.86h1006.8c29.3 0 52.99-23.74 52.99-52.99v-1430.7c0-29.25-23.69-52.99-52.99-52.99h-1006.8zm1642.6 74.93 560.93 560.93h-560.93zm-2013.6 825.87h1324.7v1324.7h-1324.7z" fill="#1f269d"/><path d="m4539.9 3084c-11.55 0-37.564 4.9012-37.564 34.201 0 29.3 26.014 35.799 37.564 35.799h861.16c11.55 0 36.342-5.7 36.342-35s-24.792-35-36.342-35zm0 310c-11.55 0-37.564 4.9012-37.564 34.201 0 29.3 26.014 35.799 37.564 35.799h861.16c11.55 0 36.342-5.7 36.342-35s-24.792-35-36.342-35zm0 310c-11.55 0-37.564 4.9012-37.564 34.201 0 29.3 26.014 35.799 37.564 35.799h861.16c11.55 0 36.342-5.7 36.342-35s-24.792-35-36.342-35zm0 310c-11.55 0-37.564 4.9012-37.564 34.201 0 29.3 26.014 35.799 37.564 35.799h861.16c11.55 0 36.342-5.7 36.342-35s-24.792-35-36.342-35z" fill="#1f269d"/><path d="m3902.9 3365.2c-93.129-113.1-256.89-159.66-395.64-112.82-140.9 43.969-246.73 179.69-254.13 327.24-11.204 145.85 74.178 292.81 206.46 355.26 129.54 65.181 296.23 42.92 404.18-53.914 13.926-12.181 26.933-25.414 38.875-39.546" fill="none" stroke="#1f269d" stroke-width="83.54"/><path d="m5771 5722.5c-64.241-177.07-225.58-260.01-412.09-225.84l-862.15 167.58c-62.74-106.08-184.24-178.16-323.59-178.16h-429.78c-166.83-8.242-252.54-21.716-375.63-65.3-142.63-48.246-279.19-149.17-420.56-156.21l-586.65-29.2c-13.13-111.1-107.65-197.54-222.17-197.54h-778.04v212.34l400.81 1e-4v1203.2h-400.81v212.33h778.04c95.36 0 176.79-60.03 209.04-144.24 345.58 53.501 696.96 219.46 984.47 323.12 202.72 72 354.41 90.28 456.21 90.28 93.34 0 144.75-15.37 155.11-18.83 0 0 4.8937-1.3046 7.16-2.4l1604.9-775.71c169.59-82.44 268.31-241.1 215.77-415.39zm-3620.9 719.06c0 6.28-5.51 11.8-11.79 11.8h-165.03v-1203.2h165.03c6.28 0 11.79 5.52 11.79 11.8zm3327.8-502.05-1605.8 775.76c-28.58 13.807-185.96 29.83-468.93-70.65-340.76-95.31-739.95-317.47-1041-335.05v-861.83l519.53 18.83c145.53 5.2747 295.42 110.78 413.41 153.78 251.89 91.67 409.3 77.01 454.82 78.06h423.04c84.83 0 156.52 59.4 156.52 129.76 0 70.35-71.69 129.75-156.52 129.75l-690.39-5.81c-284.08 0-328.81 113.42-328.81 302.7h211.89c0-66.356 44.126-90.75 98.31-90.75l709.04 6.19c187.14 0 342.08-130.05 365.53-297.85l865.4-168.22c74.427-13.065 143.08 14.926 163.69 79.71 15.807 68.71-33.822 127.73-89.77 155.62z" fill="#1f269d"/></svg>
